<svg width="94" height="67" viewBox="0 0 94 67" fill="none" xmlns="http://www.w3.org/2000/svg">
<path d="M10.9454 61.7864C10.9454 61.4351 11.011 61.1052 11.1423 60.7965C11.2771 60.4878 11.4598 60.2199 11.6905 59.9929C11.9211 59.7622 12.1907 59.5813 12.4994 59.45C12.8081 59.3152 13.1363 59.2478 13.484 59.2478C13.8317 59.2478 14.1581 59.3134 14.4633 59.4447C14.7684 59.576 15.0345 59.7551 15.2616 59.9822C15.4922 60.2057 15.6731 60.4701 15.8044 60.7752C15.9392 61.0803 16.0102 61.4067 16.0173 61.7545V63.846C16.0173 63.9596 15.9783 64.0571 15.9002 64.1387C15.8221 64.2203 15.7246 64.2611 15.6075 64.2611C15.494 64.2611 15.3999 64.2203 15.3254 64.1387C15.2545 64.0571 15.219 63.9596 15.219 63.846L15.2137 63.5799C14.9866 63.8034 14.7258 63.9844 14.4313 64.1228C14.1368 64.2576 13.8211 64.325 13.484 64.325C13.1363 64.325 12.8081 64.2594 12.4994 64.1281C12.1907 63.9933 11.9211 63.8105 11.6905 63.5799C11.4598 63.3493 11.2771 63.0814 11.1423 62.7763C11.011 62.4676 10.9454 62.1376 10.9454 61.7864ZM11.749 61.7864C11.749 62.0241 11.7934 62.2476 11.8821 62.457C11.9743 62.6663 12.0985 62.8508 12.2546 63.0105C12.4107 63.1666 12.5934 63.2907 12.8028 63.383C13.0157 63.4752 13.2427 63.5214 13.484 63.5214C13.7288 63.5214 13.9559 63.4752 14.1652 63.383C14.3781 63.2907 14.5626 63.1666 14.7187 63.0105C14.8748 62.8508 14.9972 62.6663 15.0859 62.457C15.1746 62.2476 15.219 62.0241 15.219 61.7864C15.219 61.5451 15.1746 61.3198 15.0859 61.1105C14.9972 60.8976 14.8748 60.7131 14.7187 60.557C14.5626 60.4009 14.3781 60.2785 14.1652 60.1898C13.9559 60.0975 13.7288 60.0514 13.484 60.0514C13.2427 60.0514 13.0157 60.0975 12.8028 60.1898C12.5934 60.2785 12.4107 60.4009 12.2546 60.557C12.0985 60.7131 11.9743 60.8976 11.8821 61.1105C11.7934 61.3198 11.749 61.5451 11.749 61.7864Z" fill="white"/>
<path d="M20.582 59.2531V58.9231C20.5856 58.6996 20.6246 58.4956 20.6991 58.3111C20.7772 58.123 20.8818 57.9616 21.0131 57.8268C21.1479 57.6884 21.3041 57.5784 21.4815 57.4968C21.6589 57.4152 21.8505 57.3655 22.0562 57.3478C22.0669 57.3478 22.0775 57.3478 22.0882 57.3478C22.0988 57.3442 22.1112 57.3425 22.1254 57.3425H22.1999L22.2053 57.3531C22.3011 57.3673 22.3791 57.4081 22.4394 57.4755C22.5033 57.5394 22.5352 57.6228 22.5352 57.7257C22.5352 57.8179 22.5033 57.9013 22.4394 57.9758C22.3791 58.0503 22.3011 58.0964 22.2053 58.1142V58.1195C22.0882 58.1195 21.98 58.1426 21.8806 58.1887C21.7813 58.2313 21.6943 58.2898 21.6198 58.3643C21.5453 58.4388 21.4868 58.5257 21.4442 58.6251C21.4016 58.7244 21.3803 58.8291 21.3803 58.9391V59.2531H22.019C22.1325 59.2531 22.2283 59.2921 22.3064 59.3702C22.3844 59.4447 22.4235 59.5387 22.4235 59.6522C22.4235 59.7658 22.3844 59.8616 22.3064 59.9396C22.2283 60.0141 22.1325 60.0514 22.019 60.0514H21.3803V63.8407C21.3803 63.9542 21.3413 64.05 21.2633 64.1281C21.1887 64.2061 21.0965 64.2452 20.9865 64.2452C20.873 64.2452 20.7772 64.2061 20.6991 64.1281C20.6211 64.05 20.582 63.9542 20.582 63.8407V60.0514H20.0818C19.9682 60.0514 19.8724 60.0124 19.7944 59.9343C19.7163 59.8563 19.6773 59.7622 19.6773 59.6522C19.6773 59.5387 19.7163 59.4447 19.7944 59.3702C19.8724 59.2921 19.9682 59.2531 20.0818 59.2531H20.582ZM17.5431 59.2531V58.9231C17.5467 58.6996 17.5857 58.4956 17.6602 58.3111C17.7383 58.123 17.8429 57.9616 17.9742 57.8268C18.1091 57.6884 18.2652 57.5784 18.4426 57.4968C18.62 57.4152 18.8116 57.3655 19.0173 57.3478C19.028 57.3478 19.0386 57.3478 19.0493 57.3478C19.0599 57.3442 19.0723 57.3425 19.0865 57.3425H19.161L19.1664 57.3531C19.2586 57.3709 19.3367 57.4117 19.4005 57.4755C19.4644 57.5394 19.4963 57.6228 19.4963 57.7257C19.4963 57.8179 19.4644 57.9013 19.4005 57.9758C19.3402 58.0503 19.2622 58.0964 19.1664 58.1142L19.161 58.1195C19.044 58.1195 18.9357 58.1426 18.8364 58.1887C18.7371 58.2313 18.6501 58.2898 18.5756 58.3643C18.5047 58.4388 18.4479 58.5257 18.4053 58.6251C18.3627 58.7244 18.3414 58.8291 18.3414 58.9391V59.2531H18.9801C19.0936 59.2531 19.1894 59.2921 19.2675 59.3702C19.3455 59.4447 19.3846 59.5387 19.3846 59.6522C19.3846 59.7658 19.3455 59.8616 19.2675 59.9396C19.1894 60.0141 19.0936 60.0514 18.9801 60.0514H18.3414V63.8407C18.3414 63.9542 18.3024 64.05 18.2244 64.1281C18.1463 64.2061 18.0541 64.2452 17.9476 64.2452C17.8341 64.2452 17.7383 64.2061 17.6602 64.1281C17.5822 64.05 17.5431 63.9542 17.5431 63.8407V60.0514H17.0429C16.9293 60.0514 16.8335 60.0124 16.7555 59.9343C16.6774 59.8563 16.6384 59.7622 16.6384 59.6522C16.6384 59.5387 16.6774 59.4447 16.7555 59.3702C16.8335 59.2921 16.9293 59.2531 17.0429 59.2531H17.5431Z" fill="white"/>
<path d="M23.6613 61.7864C23.6613 61.5451 23.7056 61.3198 23.7943 61.1105C23.8866 60.8976 24.0107 60.7131 24.1668 60.557C24.323 60.4009 24.5057 60.2785 24.715 60.1898C24.9279 60.0975 25.155 60.0514 25.3962 60.0514C25.6411 60.0514 25.8681 60.0975 26.0775 60.1898C26.2903 60.2785 26.4748 60.4009 26.631 60.557C26.7871 60.7131 26.9095 60.8976 26.9982 61.1105C27.0869 61.3198 27.1312 61.5451 27.1312 61.7864C27.1312 62.0241 27.0869 62.2476 26.9982 62.457C26.9095 62.6663 26.7871 62.8508 26.631 63.0105C26.4748 63.1666 26.2903 63.2907 26.0775 63.383C25.8681 63.4752 25.6411 63.5214 25.3962 63.5214C25.155 63.5214 24.9279 63.4752 24.715 63.383C24.5057 63.2907 24.323 63.1666 24.1668 63.0105C24.0107 62.8508 23.8866 62.6663 23.7943 62.457C23.7056 62.2476 23.6613 62.0241 23.6613 61.7864ZM22.8576 61.7864C22.8576 62.1376 22.9233 62.4676 23.0545 62.7763C23.1894 63.0814 23.3721 63.3493 23.6027 63.5799C23.8333 63.8105 24.103 63.9933 24.4117 64.1281C24.7203 64.2594 25.0485 64.325 25.3962 64.325C25.7475 64.325 26.0757 64.2594 26.3808 64.1281C26.6895 63.9933 26.9574 63.8105 27.1845 63.5799C27.4151 63.3493 27.596 63.0814 27.7273 62.7763C27.8621 62.4676 27.9295 62.1376 27.9295 61.7864C27.9295 61.4351 27.8621 61.1052 27.7273 60.7965C27.596 60.4878 27.4151 60.2199 27.1845 59.9929C26.9574 59.7622 26.6895 59.5813 26.3808 59.45C26.0757 59.3152 25.7475 59.2478 25.3962 59.2478C25.0485 59.2478 24.7203 59.3152 24.4117 59.45C24.103 59.5813 23.8333 59.7622 23.6027 59.9929C23.3721 60.2199 23.1894 60.4878 23.0545 60.7965C22.9233 61.1052 22.8576 61.4351 22.8576 61.7864Z" fill="white"/>
<path d="M29.4946 60.0035C29.7323 59.7693 30.0072 59.5848 30.3195 59.45C30.6353 59.3152 30.9723 59.2478 31.3307 59.2478H31.3626C31.4939 59.2478 31.595 59.2868 31.666 59.3648C31.7405 59.4394 31.7777 59.5334 31.7777 59.6469C31.7777 59.7605 31.7369 59.8545 31.6553 59.929C31.5737 60.0035 31.4761 60.0407 31.3626 60.0407H31.3307C31.0788 60.0407 30.841 60.0904 30.6175 60.1898C30.3975 60.2856 30.2042 60.4168 30.0374 60.5836C29.8706 60.7504 29.7376 60.9473 29.6383 61.1743C29.5425 61.4014 29.4946 61.6427 29.4946 61.8981V63.862C29.4946 63.972 29.4555 64.066 29.3775 64.1441C29.303 64.2221 29.2089 64.2611 29.0954 64.2611C28.9854 64.2611 28.8914 64.2221 28.8133 64.1441C28.7353 64.066 28.6962 63.972 28.6962 63.862V59.6469C28.6962 59.5334 28.7353 59.4376 28.8133 59.3595C28.8914 59.2815 28.9872 59.2424 29.1007 59.2424C29.2143 59.2424 29.3083 59.2815 29.3828 59.3595C29.4573 59.4376 29.4946 59.5334 29.4946 59.6469V60.0035Z" fill="white"/>
<path d="M36.9313 57.8427C36.9313 57.7292 36.8923 57.6352 36.8142 57.5607C36.7362 57.4862 36.6421 57.4489 36.5321 57.4489C36.4186 57.4489 36.3228 57.4862 36.2447 57.5607C36.1702 57.6352 36.133 57.7292 36.133 57.8427V59.9343C35.9059 59.7214 35.6434 59.5547 35.3453 59.434C35.0508 59.3099 34.7351 59.2478 34.398 59.2478C34.0503 59.2478 33.7221 59.3152 33.4134 59.45C33.1047 59.5813 32.8351 59.7622 32.6045 59.9929C32.3738 60.2199 32.1911 60.4878 32.0563 60.7965C31.925 61.1052 31.8594 61.4351 31.8594 61.7864C31.8594 62.1341 31.925 62.4623 32.0563 62.771C32.1911 63.0796 32.3738 63.3493 32.6045 63.5799C32.8351 63.807 33.1047 63.9879 33.4134 64.1228C33.7221 64.254 34.0503 64.3197 34.398 64.3197C34.7351 64.3197 35.0508 64.2594 35.3453 64.1387C35.6434 64.0145 35.9059 63.846 36.133 63.6331V63.8673C36.133 63.9773 36.1702 64.0713 36.2447 64.1494C36.3228 64.2239 36.4186 64.2611 36.5321 64.2611C36.6421 64.2611 36.7362 64.2239 36.8142 64.1494C36.8923 64.0713 36.9313 63.9773 36.9313 63.8673V57.8427ZM32.663 61.7864C32.663 61.5451 32.7074 61.3198 32.7961 61.1105C32.8883 60.8976 33.0125 60.7131 33.1686 60.557C33.3247 60.4009 33.5074 60.2785 33.7168 60.1898C33.9297 60.1011 34.1567 60.0567 34.398 60.0567C34.6428 60.0567 34.8699 60.1011 35.0792 60.1898C35.2921 60.2785 35.4766 60.4009 35.6327 60.557C35.7888 60.7131 35.9112 60.8976 35.9999 61.1105C36.0886 61.3198 36.133 61.5451 36.133 61.7864C36.133 62.0241 36.0886 62.2476 35.9999 62.457C35.9112 62.6663 35.7888 62.8508 35.6327 63.0105C35.4766 63.1666 35.2921 63.2907 35.0792 63.383C34.8699 63.4717 34.6428 63.516 34.398 63.516C34.1567 63.516 33.9297 63.4717 33.7168 63.383C33.5074 63.2907 33.3247 63.1666 33.1686 63.0105C33.0125 62.8508 32.8883 62.6663 32.7961 62.457C32.7074 62.2476 32.663 62.0241 32.663 61.7864Z" fill="white"/>
<path d="M37.7012 61.7864C37.7012 61.4351 37.7668 61.1052 37.8981 60.7965C38.0329 60.4878 38.2156 60.2199 38.4462 59.9929C38.6769 59.7622 38.9465 59.5813 39.2552 59.45C39.5639 59.3152 39.8921 59.2478 40.2398 59.2478C40.5875 59.2478 40.9139 59.3134 41.219 59.4447C41.5242 59.576 41.7903 59.7551 42.0173 59.9822C42.248 60.2057 42.4289 60.4701 42.5602 60.7752C42.695 61.0803 42.766 61.4067 42.7731 61.7545V63.846C42.7731 63.9596 42.734 64.0571 42.656 64.1387C42.5779 64.2203 42.4804 64.2611 42.3633 64.2611C42.2497 64.2611 42.1557 64.2203 42.0812 64.1387C42.0103 64.0571 41.9748 63.9596 41.9748 63.846L41.9694 63.5799C41.7424 63.8034 41.4816 63.9844 41.1871 64.1228C40.8926 64.2576 40.5768 64.325 40.2398 64.325C39.8921 64.325 39.5639 64.2594 39.2552 64.1281C38.9465 63.9933 38.6769 63.8105 38.4462 63.5799C38.2156 63.3493 38.0329 63.0814 37.8981 62.7763C37.7668 62.4676 37.7012 62.1376 37.7012 61.7864ZM38.5048 61.7864C38.5048 62.0241 38.5491 62.2476 38.6378 62.457C38.7301 62.6663 38.8543 62.8508 39.0104 63.0105C39.1665 63.1666 39.3492 63.2907 39.5586 63.383C39.7714 63.4752 39.9985 63.5214 40.2398 63.5214C40.4846 63.5214 40.7117 63.4752 40.921 63.383C41.1339 63.2907 41.3184 63.1666 41.4745 63.0105C41.6306 62.8508 41.753 62.6663 41.8417 62.457C41.9304 62.2476 41.9748 62.0241 41.9748 61.7864C41.9748 61.5451 41.9304 61.3198 41.8417 61.1105C41.753 60.8976 41.6306 60.7131 41.4745 60.557C41.3184 60.4009 41.1339 60.2785 40.921 60.1898C40.7117 60.0975 40.4846 60.0514 40.2398 60.0514C39.9985 60.0514 39.7714 60.0975 39.5586 60.1898C39.3492 60.2785 39.1665 60.4009 39.0104 60.557C38.8543 60.7131 38.7301 60.8976 38.6378 61.1105C38.5491 61.3198 38.5048 61.5451 38.5048 61.7864Z" fill="white"/>
<path d="M44.6449 63.8673C44.6449 63.9773 44.6058 64.0713 44.5278 64.1494C44.4497 64.2239 44.3557 64.2611 44.2457 64.2611C44.1357 64.2611 44.0417 64.2239 43.9636 64.1494C43.8856 64.0713 43.8466 63.9773 43.8466 63.8673V57.8427C43.8466 57.7292 43.8856 57.6352 43.9636 57.5607C44.0417 57.4862 44.1357 57.4489 44.2457 57.4489C44.3557 57.4489 44.4497 57.4862 44.5278 57.5607C44.6058 57.6352 44.6449 57.7292 44.6449 57.8427V59.9396C44.8613 59.7338 45.1132 59.5706 45.4006 59.45C45.7093 59.3152 46.0375 59.2478 46.3852 59.2478C46.7364 59.2478 47.0646 59.3152 47.3698 59.45C47.6784 59.5813 47.9463 59.7622 48.1734 59.9929C48.404 60.2199 48.585 60.4878 48.7162 60.7965C48.8511 61.1052 48.9185 61.4351 48.9185 61.7864C48.9185 62.1341 48.8511 62.4623 48.7162 62.771C48.585 63.0796 48.404 63.3493 48.1734 63.5799C47.9463 63.807 47.6784 63.9879 47.3698 64.1228C47.0646 64.254 46.7364 64.3197 46.3852 64.3197C46.0375 64.3197 45.7093 64.254 45.4006 64.1228C45.1132 63.9986 44.8613 63.8336 44.6449 63.6278V63.8673ZM44.6449 61.7864C44.6449 62.0241 44.6892 62.2476 44.7779 62.457C44.8702 62.6663 44.9943 62.8508 45.1505 63.0105C45.3066 63.1666 45.4911 63.2907 45.7039 63.383C45.9168 63.4717 46.1439 63.516 46.3852 63.516C46.63 63.516 46.8571 63.4717 47.0664 63.383C47.2793 63.2907 47.4638 63.1666 47.6199 63.0105C47.776 62.8508 47.8984 62.6663 47.9871 62.457C48.0758 62.2476 48.1202 62.0241 48.1202 61.7864C48.1202 61.5451 48.0758 61.3198 47.9871 61.1105C47.8984 60.8976 47.776 60.7131 47.6199 60.557C47.4638 60.4009 47.2793 60.2785 47.0664 60.1898C46.8571 60.0975 46.63 60.0514 46.3852 60.0514C46.1439 60.0514 45.9168 60.0975 45.7039 60.1898C45.4946 60.2785 45.3101 60.4009 45.1505 60.557C44.9943 60.7131 44.8702 60.8976 44.7779 61.1105C44.6963 61.3056 44.652 61.5132 44.6449 61.7332V61.7864Z" fill="white"/>
<path d="M50.4813 57.8427C50.4813 57.7292 50.4423 57.6352 50.3642 57.5607C50.2862 57.4862 50.1922 57.4489 50.0822 57.4489C49.9722 57.4489 49.8782 57.4862 49.8001 57.5607C49.722 57.6352 49.683 57.7292 49.683 57.8427V63.8673C49.683 63.9773 49.722 64.0713 49.8001 64.1494C49.8782 64.2239 49.9722 64.2611 50.0822 64.2611C50.1922 64.2611 50.2862 64.2239 50.3642 64.1494C50.4423 64.0713 50.4813 63.9773 50.4813 63.8673V57.8427Z" fill="white"/>
<path d="M53.4008 62.9359L54.9229 59.4926C54.969 59.3897 55.0418 59.3169 55.1411 59.2744C55.244 59.2318 55.3469 59.2353 55.4498 59.285C55.5491 59.3311 55.6183 59.4057 55.6574 59.5085C55.6999 59.6114 55.6982 59.7143 55.652 59.8172L52.9378 65.879C52.8881 65.9819 52.8118 66.0529 52.7089 66.0919C52.6096 66.1345 52.5085 66.1327 52.4056 66.0866C52.3027 66.0369 52.237 65.9624 52.2087 65.8631C52.1838 65.7637 52.1962 65.6626 52.2459 65.5597L52.9857 63.8833L51.1709 59.8172C51.146 59.764 51.1318 59.7108 51.1283 59.6576C51.1283 59.6043 51.1372 59.5547 51.1549 59.5085C51.1762 59.4589 51.2046 59.4145 51.24 59.3755C51.2755 59.3329 51.3181 59.301 51.3678 59.2797C51.4707 59.2336 51.5718 59.2318 51.6711 59.2744C51.774 59.3169 51.8485 59.3897 51.8947 59.4926L53.4008 62.9359Z" fill="white"/>
<path d="M59.5193 60.0461C59.7251 59.8013 59.9611 59.6079 60.2272 59.466C60.4968 59.3205 60.7824 59.2478 61.084 59.2478C61.3927 59.2478 61.6712 59.3063 61.9196 59.4234C62.1679 59.5405 62.3808 59.7072 62.5582 59.9237C62.7356 60.1365 62.8722 60.3938 62.968 60.6954C63.0674 60.9934 63.117 61.3251 63.117 61.6906V63.8726C63.117 63.9862 63.078 64.0802 63 64.1547C62.9219 64.2292 62.8261 64.2665 62.7126 64.2665C62.6026 64.2665 62.5086 64.2292 62.4305 64.1547C62.356 64.0802 62.3187 63.9862 62.3187 63.8726V61.6799C62.3152 61.4245 62.2833 61.1956 62.2229 60.9934C62.1626 60.7912 62.0739 60.6209 61.9568 60.4825C61.8433 60.3406 61.7049 60.2323 61.5417 60.1578C61.382 60.0833 61.1993 60.0461 60.9935 60.0461C60.7913 60.0461 60.6015 60.0869 60.4241 60.1685C60.2502 60.2465 60.0977 60.3565 59.9664 60.4984C59.8351 60.6368 59.7287 60.8018 59.6471 60.9934C59.569 61.1814 59.5264 61.3855 59.5193 61.6054V63.862C59.5193 63.972 59.4803 64.066 59.4022 64.1441C59.3277 64.2221 59.2355 64.2611 59.1255 64.2611C59.012 64.2611 58.9162 64.2221 58.8381 64.1441C58.7601 64.066 58.721 63.972 58.721 63.862V57.8587C58.721 57.7452 58.7601 57.6494 58.8381 57.5713C58.9197 57.4897 59.0155 57.4489 59.1255 57.4489C59.2355 57.4489 59.3277 57.4897 59.4022 57.5713C59.4803 57.6494 59.5193 57.7452 59.5193 57.8587V60.0461Z" fill="white"/>
<path d="M68.5377 62.1483C68.6548 62.1483 68.7488 62.1128 68.8198 62.0418C68.8943 61.9709 68.9315 61.8786 68.9315 61.7651C68.928 61.4174 68.8588 61.091 68.724 60.7858C68.5892 60.4807 68.4064 60.2146 68.1758 59.9875C67.9487 59.7569 67.6809 59.576 67.3722 59.4447C67.0635 59.3134 66.7353 59.2478 66.3876 59.2478C66.0364 59.2478 65.7064 59.3152 65.3977 59.45C65.089 59.5813 64.8194 59.7622 64.5888 59.9929C64.3581 60.2199 64.1754 60.4878 64.0406 60.7965C63.9093 61.1052 63.8437 61.4351 63.8437 61.7864C63.8437 62.1376 63.9093 62.4676 64.0406 62.7763C64.1754 63.085 64.3581 63.3546 64.5888 63.5852C64.8194 63.8123 65.089 63.9915 65.3977 64.1228C65.7064 64.254 66.0364 64.3197 66.3876 64.3197C66.5898 64.3197 66.7761 64.3019 66.9464 64.2665C67.1167 64.231 67.2728 64.1831 67.4148 64.1228C67.5567 64.0624 67.6844 63.9915 67.798 63.9099C67.915 63.8283 68.0197 63.7396 68.112 63.6438C68.2042 63.5622 68.2521 63.4717 68.2556 63.3724C68.2592 63.2695 68.2344 63.1808 68.1811 63.1063C68.135 63.0282 68.0729 62.9732 67.9949 62.9413C67.9346 62.9235 67.8707 62.92 67.8033 62.9306C67.7359 62.9377 67.6667 62.9697 67.5957 63.0264C67.4644 63.1861 67.2959 63.3138 67.0901 63.4096C66.8843 63.5054 66.6502 63.5533 66.3876 63.5533C66.1783 63.5533 65.9796 63.5178 65.7915 63.4469C65.607 63.3759 65.4403 63.2783 65.2913 63.1542C65.1458 63.0264 65.0234 62.8774 64.924 62.7071C64.8282 62.5332 64.7644 62.347 64.7324 62.1483H68.5377ZM64.7058 61.4777C64.7342 61.2755 64.7963 61.0856 64.8921 60.9082C64.9915 60.7273 65.1156 60.5712 65.2647 60.4399C65.4137 60.3086 65.584 60.2057 65.7756 60.1312C65.9707 60.0532 66.1783 60.0141 66.3983 60.0141C66.6182 60.0141 66.8258 60.0514 67.0209 60.1259C67.2161 60.2004 67.3882 60.3033 67.5372 60.4346C67.6897 60.5659 67.8157 60.722 67.915 60.9029C68.0179 61.0803 68.0836 61.2719 68.112 61.4777H64.7058Z" fill="white"/>
<path d="M69.384 61.7864C69.384 61.4351 69.4496 61.1052 69.5809 60.7965C69.7157 60.4878 69.8985 60.2199 70.1291 59.9929C70.3597 59.7622 70.6294 59.5813 70.938 59.45C71.2467 59.3152 71.5749 59.2478 71.9226 59.2478C72.2703 59.2478 72.5968 59.3134 72.9019 59.4447C73.207 59.576 73.4731 59.7551 73.7002 59.9822C73.9308 60.2057 74.1118 60.4701 74.243 60.7752C74.3779 61.0803 74.4488 61.4067 74.4559 61.7545V63.846C74.4559 63.9596 74.4169 64.0571 74.3388 64.1387C74.2608 64.2203 74.1632 64.2611 74.0461 64.2611C73.9326 64.2611 73.8386 64.2203 73.7641 64.1387C73.6931 64.0571 73.6576 63.9596 73.6576 63.846L73.6523 63.5799C73.4252 63.8034 73.1644 63.9844 72.87 64.1228C72.5755 64.2576 72.2597 64.325 71.9226 64.325C71.5749 64.325 71.2467 64.2594 70.938 64.1281C70.6294 63.9933 70.3597 63.8105 70.1291 63.5799C69.8985 63.3493 69.7157 63.0814 69.5809 62.7763C69.4496 62.4676 69.384 62.1376 69.384 61.7864ZM70.1876 61.7864C70.1876 62.0241 70.232 62.2476 70.3207 62.457C70.4129 62.6663 70.5371 62.8508 70.6932 63.0105C70.8493 63.1666 71.0321 63.2907 71.2414 63.383C71.4543 63.4752 71.6814 63.5214 71.9226 63.5214C72.1674 63.5214 72.3945 63.4752 72.6038 63.383C72.8167 63.2907 73.0012 63.1666 73.1573 63.0105C73.3135 62.8508 73.4359 62.6663 73.5246 62.457C73.6133 62.2476 73.6576 62.0241 73.6576 61.7864C73.6576 61.5451 73.6133 61.3198 73.5246 61.1105C73.4359 60.8976 73.3135 60.7131 73.1573 60.557C73.0012 60.4009 72.8167 60.2785 72.6038 60.1898C72.3945 60.0975 72.1674 60.0514 71.9226 60.0514C71.6814 60.0514 71.4543 60.0975 71.2414 60.1898C71.0321 60.2785 70.8493 60.4009 70.6932 60.557C70.5371 60.7131 70.4129 60.8976 70.3207 61.1105C70.232 61.3198 70.1876 61.5451 70.1876 61.7864Z" fill="white"/>
<path d="M76.3224 57.8427C76.3224 57.7292 76.2834 57.6352 76.2053 57.5607C76.1272 57.4862 76.0332 57.4489 75.9232 57.4489C75.8132 57.4489 75.7192 57.4862 75.6412 57.5607C75.5631 57.6352 75.5241 57.7292 75.5241 57.8427V63.8673C75.5241 63.9773 75.5631 64.0713 75.6412 64.1494C75.7192 64.2239 75.8132 64.2611 75.9232 64.2611C76.0332 64.2611 76.1272 64.2239 76.2053 64.1494C76.2834 64.0713 76.3224 63.9773 76.3224 63.8673V57.8427Z" fill="white"/>
<path d="M78.6564 57.8427C78.6564 57.7292 78.6174 57.6352 78.5394 57.5607C78.4613 57.4862 78.3673 57.4489 78.2573 57.4489C78.1437 57.4489 78.048 57.4862 77.9699 57.5607C77.8918 57.6352 77.8528 57.7292 77.8528 57.8427V59.2531H77.3419C77.2284 59.2531 77.1326 59.2921 77.0545 59.3702C76.9764 59.4447 76.9374 59.5387 76.9374 59.6522C76.9374 59.7622 76.9764 59.8563 77.0545 59.9343C77.1326 60.0124 77.2284 60.0514 77.3419 60.0514H77.8528V63.8673C77.8528 63.9773 77.8918 64.0713 77.9699 64.1494C78.048 64.2239 78.1437 64.2611 78.2573 64.2611C78.3673 64.2611 78.4613 64.2239 78.5394 64.1494C78.6174 64.0713 78.6564 63.9773 78.6564 63.8673V60.0514H79.2791C79.3927 60.0514 79.4867 60.0141 79.5612 59.9396C79.6392 59.8616 79.6783 59.7658 79.6783 59.6522C79.6783 59.5387 79.6392 59.4447 79.5612 59.3702C79.4867 59.2921 79.3927 59.2531 79.2791 59.2531H78.6564V57.8427Z" fill="white"/>
<path d="M81.0986 60.0461C81.3044 59.8013 81.5403 59.6079 81.8064 59.466C82.0761 59.3205 82.3617 59.2478 82.6633 59.2478C82.972 59.2478 83.2505 59.3063 83.4988 59.4234C83.7472 59.5405 83.9601 59.7072 84.1375 59.9237C84.3149 60.1365 84.4515 60.3938 84.5473 60.6954C84.6466 60.9934 84.6963 61.3251 84.6963 61.6906V63.8726C84.6963 63.9862 84.6573 64.0802 84.5792 64.1547C84.5012 64.2292 84.4054 64.2665 84.2918 64.2665C84.1818 64.2665 84.0878 64.2292 84.0098 64.1547C83.9352 64.0802 83.898 63.9862 83.898 63.8726V61.6799C83.8944 61.4245 83.8625 61.1956 83.8022 60.9934C83.7419 60.7912 83.6532 60.6209 83.5361 60.4825C83.4226 60.3406 83.2842 60.2323 83.121 60.1578C82.9613 60.0833 82.7786 60.0461 82.5728 60.0461C82.3706 60.0461 82.1807 60.0869 82.0033 60.1685C81.8295 60.2465 81.6769 60.3565 81.5456 60.4984C81.4144 60.6368 81.3079 60.8018 81.2263 60.9934C81.1483 61.1814 81.1057 61.3855 81.0986 61.6054V63.862C81.0986 63.972 81.0596 64.066 80.9815 64.1441C80.907 64.2221 80.8148 64.2611 80.7048 64.2611C80.5912 64.2611 80.4954 64.2221 80.4174 64.1441C80.3393 64.066 80.3003 63.972 80.3003 63.862V57.8587C80.3003 57.7452 80.3393 57.6494 80.4174 57.5713C80.499 57.4897 80.5948 57.4489 80.7048 57.4489C80.8148 57.4489 80.907 57.4897 80.9815 57.5713C81.0596 57.6494 81.0986 57.7452 81.0986 57.8587V60.0461Z" fill="white"/>
<path d="M87.5784 62.9359L89.1005 59.4926C89.1466 59.3897 89.2193 59.3169 89.3187 59.2744C89.4216 59.2318 89.5245 59.2353 89.6273 59.285C89.7267 59.3311 89.7959 59.4057 89.8349 59.5085C89.8775 59.6114 89.8757 59.7143 89.8296 59.8172L87.1153 65.879C87.0657 65.9819 86.9894 66.0529 86.8865 66.0919C86.7871 66.1345 86.686 66.1327 86.5831 66.0866C86.4802 66.0369 86.4146 65.9624 86.3862 65.8631C86.3614 65.7637 86.3738 65.6626 86.4235 65.5597L87.1632 63.8833L85.3484 59.8172C85.3236 59.764 85.3094 59.7108 85.3058 59.6576C85.3058 59.6043 85.3147 59.5547 85.3325 59.5085C85.3537 59.4589 85.3821 59.4145 85.4176 59.3755C85.4531 59.3329 85.4957 59.301 85.5453 59.2797C85.6482 59.2336 85.7494 59.2318 85.8487 59.2744C85.9516 59.3169 86.0261 59.3897 86.0722 59.4926L87.5784 62.9359Z" fill="white"/>
<path d="M10.2086 10.9102C11.0795 10.0716 12.0391 9.41036 13.0874 8.92653C14.1357 8.42658 15.2323 8.17661 16.3774 8.17661C17.7805 8.17661 19.0626 8.45884 20.2238 9.0233C21.3849 9.58776 22.3768 10.3699 23.1993 11.3698C24.0218 12.3536 24.6588 13.5309 25.1104 14.9017C25.5781 16.2565 25.8119 17.7402 25.8119 19.3529V28.6423C25.8119 29.3197 25.5781 29.8841 25.1104 30.3357C24.6588 30.7873 24.0943 31.0131 23.417 31.0131C22.7396 31.0131 22.1671 30.7873 21.6994 30.3357C21.2479 29.8841 21.0221 29.3197 21.0221 28.6423V19.4497C21.0221 18.482 20.9011 17.6031 20.6592 16.8129C20.4334 16.0065 20.0947 15.3211 19.6432 14.7566C19.2077 14.176 18.6675 13.7325 18.0224 13.4261C17.3773 13.1197 16.6515 12.9665 15.8452 12.9665C15.0549 12.9665 14.3211 13.1197 13.6438 13.4261C12.9664 13.7325 12.3778 14.1518 11.8778 14.684C11.3779 15.2162 10.9827 15.8533 10.6925 16.5951C10.4022 17.3209 10.2409 18.1111 10.2086 18.9659V28.5697C10.2086 29.2471 9.97478 29.8196 9.50709 30.2873C9.05552 30.7389 8.49106 30.9647 7.81371 30.9647C7.47503 30.9647 7.15248 30.9082 6.84606 30.7953C6.55577 30.6663 6.29773 30.497 6.07194 30.2873C5.86229 30.0615 5.69295 29.8035 5.56393 29.5132C5.45104 29.2229 5.39459 28.9084 5.39459 28.5697V2.44331C5.39459 2.10463 5.4591 1.79015 5.58812 1.49985C5.71714 1.19343 5.88648 0.935392 6.09614 0.725737C6.32192 0.499952 6.57996 0.322549 6.87025 0.19353C7.17667 0.0645099 7.49116 0 7.81371 0C8.15238 0 8.46687 0.0645099 8.75716 0.19353C9.04746 0.322549 9.29743 0.499952 9.50709 0.725737C9.73287 0.935392 9.90221 1.19343 10.0151 1.49985C10.1441 1.79015 10.2086 2.10463 10.2086 2.44331V10.9102Z" fill="white"/>
<path d="M33.9428 19.7158C33.9428 18.7804 34.1202 17.9095 34.475 17.1031C34.8298 16.2968 35.3056 15.5952 35.9023 14.9985C36.5151 14.3857 37.2247 13.9099 38.0311 13.5712C38.8536 13.2164 39.7245 13.039 40.6437 13.039C41.5791 13.039 42.45 13.2164 43.2564 13.5712C44.0789 13.9099 44.7885 14.3857 45.3852 14.9985C45.998 15.5952 46.4738 16.2968 46.8125 17.1031C47.1673 17.9095 47.3447 18.7804 47.3447 19.7158C47.3447 20.6351 47.1673 21.5059 46.8125 22.3284C46.4738 23.1348 45.998 23.8444 45.3852 24.4573C44.7885 25.054 44.0789 25.5297 43.2564 25.8845C42.45 26.2393 41.5791 26.4167 40.6437 26.4167C39.7245 26.4167 38.8536 26.2393 38.0311 25.8845C37.2247 25.5297 36.5151 25.054 35.9023 24.4573C35.3056 23.8444 34.8298 23.1348 34.475 22.3284C34.1202 21.5059 33.9428 20.6351 33.9428 19.7158ZM29.1046 19.7158C29.1046 21.3124 29.4029 22.8123 29.9996 24.2153C30.6125 25.6023 31.443 26.8199 32.4913 27.8682C33.5396 28.9165 34.7653 29.7471 36.1684 30.3599C37.5715 30.9566 39.0632 31.255 40.6437 31.255C42.2404 31.255 43.7321 30.9566 45.1191 30.3599C46.5222 29.7471 47.7398 28.9165 48.772 27.8682C49.8202 26.8199 50.6427 25.6023 51.2395 24.2153C51.8523 22.8123 52.1587 21.3124 52.1587 19.7158C52.1587 18.1192 51.8523 16.6274 51.2395 15.2404C50.6427 13.8373 49.8202 12.6117 48.772 11.5634C47.7398 10.5151 46.5222 9.69259 45.1191 9.09587C43.7321 8.48303 42.2404 8.17661 40.6437 8.17661C39.0632 8.17661 37.5715 8.48303 36.1684 9.09587C34.7653 9.69259 33.5396 10.5151 32.4913 11.5634C31.443 12.6117 30.6125 13.8373 29.9996 15.2404C29.4029 16.6274 29.1046 18.1192 29.1046 19.7158Z" fill="white"/>
<path d="M73.3759 28.5939C73.3759 29.2713 73.142 29.8358 72.6743 30.2873C72.2228 30.7389 71.6664 30.9647 71.0051 30.9647C70.6826 30.9647 70.3681 30.9082 70.0617 30.7953C69.7714 30.6663 69.5134 30.497 69.2876 30.2873C69.0618 30.0615 68.8844 29.8116 68.7554 29.5374C68.6263 29.2471 68.5618 28.9326 68.5618 28.5939V16.7645C68.5457 16.2161 68.4409 15.7162 68.2473 15.2646C68.0699 14.7969 67.82 14.3937 67.4974 14.0551C67.1749 13.7164 66.7878 13.4583 66.3362 13.2809C65.8847 13.0874 65.3928 12.9906 64.8606 12.9906C64.3284 12.9906 63.7962 13.0874 63.264 13.2809C62.7479 13.4745 62.2802 13.7406 61.8609 14.0793C61.4577 14.4179 61.119 14.8211 60.8449 15.2888C60.5868 15.7404 60.4497 16.2242 60.4336 16.7403V16.8854C60.4175 16.9016 60.4175 16.9338 60.4336 16.9822C60.4497 17.0306 60.4497 17.0951 60.4336 17.1757V28.5697C60.4336 29.2471 60.1998 29.8196 59.7321 30.2873C59.2805 30.7389 58.716 30.9647 58.0387 30.9647C57.7161 30.9647 57.4016 30.9082 57.0952 30.7953C56.8049 30.6663 56.5469 30.497 56.3211 30.2873C56.1115 30.0615 55.9421 29.8035 55.8131 29.5132C55.6841 29.2229 55.6196 28.9084 55.6196 28.5697V10.5715C55.6196 10.2329 55.6841 9.91837 55.8131 9.62808C55.9421 9.33778 56.1195 9.08781 56.3453 8.87815C56.5711 8.65237 56.8291 8.47497 57.1194 8.34595C57.4097 8.21693 57.7242 8.15242 58.0629 8.15242C58.6757 8.15242 59.1918 8.34595 59.6111 8.73301C60.0304 9.12006 60.2885 9.59582 60.3852 10.1603C61.0464 9.54744 61.7722 9.06362 62.5624 8.70882C63.3688 8.33788 64.2316 8.15242 65.1509 8.15242C66.4411 8.15242 67.6022 8.41046 68.6344 8.92653C69.6827 9.42649 70.5697 10.1119 71.2954 10.9828C72.2308 10.1119 73.3033 9.42649 74.5129 8.92653C75.7224 8.41046 76.9562 8.15242 78.2141 8.15242C79.4398 8.15242 80.5526 8.38627 81.5525 8.85396C82.5524 9.30553 83.4071 9.9345 84.1167 10.7409C84.8263 11.5311 85.3747 12.4584 85.7617 13.5229C86.1488 14.5873 86.3423 15.7242 86.3423 16.9338V28.5939C86.3423 29.2713 86.1085 29.8358 85.6408 30.2873C85.1892 30.7389 84.6328 30.9647 83.9716 30.9647C83.649 30.9647 83.3346 30.9082 83.0281 30.7953C82.7378 30.6663 82.4798 30.497 82.254 30.2873C82.0282 30.0615 81.8508 29.8116 81.7218 29.5374C81.5928 29.2471 81.5283 28.9326 81.5283 28.5939V16.8612C81.5122 16.3129 81.4154 15.8049 81.238 15.3372C81.0606 14.8534 80.8026 14.4421 80.4639 14.1034C80.1413 13.7486 79.7543 13.4745 79.3027 13.2809C78.8511 13.0874 78.3512 12.9906 77.8028 12.9906C77.2706 12.9906 76.7384 13.0955 76.2062 13.3051C75.6902 13.4987 75.2225 13.7648 74.8032 14.1034C74.4 14.4421 74.0694 14.8453 73.8113 15.313C73.5533 15.7646 73.4081 16.2484 73.3759 16.7645V28.5939Z" fill="white"/>
<path d="M14.8386 35.666C14.8386 34.9838 15.0725 34.4154 15.5402 33.9606C16.0079 33.5059 16.5804 33.2785 17.2577 33.2785C17.919 33.2785 18.4834 33.5059 18.9511 33.9606C19.4188 34.4154 19.6527 34.9838 19.6527 35.666V45.021C19.6527 45.9955 19.7736 46.8807 20.0155 47.6765C20.2574 48.4561 20.5961 49.1301 21.0316 49.6985C21.4831 50.2507 22.0234 50.6811 22.6524 50.9897C23.2975 51.2983 24.0232 51.4526 24.8296 51.4526C25.6359 51.4526 26.3778 51.2983 27.0552 50.9897C27.7486 50.6649 28.3453 50.2183 28.8453 49.6498C29.3614 49.0814 29.7565 48.4155 30.0307 47.6521C30.321 46.8888 30.4661 46.0523 30.4661 45.1428V35.739C30.4661 35.0569 30.6919 34.4885 31.1435 34.0337C31.6112 33.5627 32.1837 33.3272 32.861 33.3272C33.1836 33.3272 33.49 33.3922 33.7803 33.5221C34.0867 33.6358 34.3448 33.8063 34.5544 34.0337C34.7802 34.2448 34.9576 34.4966 35.0866 34.7889C35.2156 35.0813 35.2801 35.398 35.2801 35.739V53.8645C35.2801 54.2055 35.2156 54.5222 35.0866 54.8146C34.9576 55.1069 34.7802 55.3668 34.5544 55.5942C34.3286 55.8053 34.0625 55.9758 33.7561 56.1058C33.4658 56.2357 33.1513 56.3007 32.8126 56.3007C32.1353 56.3007 31.5708 56.0652 31.1193 55.5942C30.6838 55.1232 30.4661 54.5466 30.4661 53.8645V53.5234C29.5791 54.3842 28.6115 55.0582 27.5632 55.5454C26.5149 56.0327 25.4182 56.2763 24.2732 56.2763C22.8701 56.2763 21.588 55.9921 20.4268 55.4236C19.2656 54.8552 18.2657 54.0675 17.4271 53.0605C16.6046 52.0535 15.9675 50.8598 15.516 49.4793C15.0644 48.0988 14.8386 46.5964 14.8386 44.9723V35.666Z" fill="white"/>
<path d="M53.2697 44.8748L53.2455 44.9236L53.2697 44.9479C53.2697 45.7762 53.4229 46.5883 53.7293 47.3841C54.0518 48.1637 54.4953 48.8702 55.0598 49.5036C55.6243 50.1208 56.2855 50.6243 57.0435 51.0141C57.8176 51.3876 58.6562 51.5825 59.5594 51.5988C60.3819 51.6313 61.1721 51.5338 61.9301 51.3064C62.6881 51.0791 63.4299 50.6568 64.1557 50.0396C64.3976 49.8447 64.6556 49.6579 64.9298 49.4793C65.2201 49.2844 65.5184 49.1545 65.8249 49.0895C66.1474 49.0083 66.4861 49.0083 66.8409 49.0895C67.2118 49.1707 67.5908 49.3818 67.9779 49.7229C68.2359 49.9503 68.4295 50.2183 68.5585 50.5268C68.6875 50.8354 68.7439 51.1521 68.7278 51.477C68.7278 51.8018 68.6552 52.1347 68.5101 52.4758C68.3649 52.8006 68.1472 53.1092 67.8569 53.4016C66.8732 54.4248 65.6959 55.2044 64.325 55.7403C62.9542 56.2601 61.5108 56.5199 59.9948 56.5199C58.3821 56.5199 56.8661 56.2276 55.4469 55.6429C54.0438 55.042 52.81 54.2299 51.7456 53.2067C50.6973 52.1672 49.8668 50.9491 49.2539 49.5524C48.6411 48.1394 48.3347 46.6289 48.3347 45.021V44.9967L48.3589 44.9479L48.3347 44.9236C48.3347 43.2994 48.6411 41.7809 49.2539 40.3678C49.8668 38.9548 50.6973 37.7205 51.7456 36.6648C52.81 35.6091 54.0438 34.7808 55.4469 34.1799C56.8661 33.5627 58.3821 33.2541 59.9948 33.2541C61.5108 33.2541 62.9542 33.5221 64.325 34.0581C65.6959 34.5778 66.8732 35.3493 67.8569 36.3725C68.1472 36.6648 68.3649 36.9815 68.5101 37.3226C68.6552 37.6474 68.7278 37.9804 68.7278 38.3214C68.7439 38.6463 68.6875 38.963 68.5585 39.2716C68.4295 39.5801 68.2359 39.8481 67.9779 40.0755C67.5908 40.4166 67.2118 40.6277 66.8409 40.7089C66.4861 40.7901 66.1474 40.7901 65.8249 40.7089C65.5184 40.6277 65.2201 40.4978 64.9298 40.3191C64.6556 40.1242 64.3976 39.9293 64.1557 39.7344C63.4299 39.1335 62.6881 38.7193 61.9301 38.492C61.1721 38.2646 60.3819 38.159 59.5594 38.1753C58.6724 38.2077 57.8418 38.4189 57.0677 38.8087C56.3097 39.1822 55.6485 39.6857 55.084 40.3191C54.5195 40.9363 54.076 41.6428 53.7535 42.4386C53.4309 43.2182 53.2697 44.0303 53.2697 44.8748Z" fill="white"/>
<path d="M91.6293 47.1162C92.3227 47.1162 92.8872 46.905 93.3226 46.4827C93.7742 46.0442 94 45.4839 94 44.8018C93.9839 43.2101 93.6613 41.7159 93.0323 40.3191C92.4195 38.9224 91.589 37.7043 90.5407 36.6648C89.4924 35.6254 88.2667 34.8052 86.8636 34.2042C85.4766 33.6033 83.9929 33.3028 82.4124 33.3028C80.8158 33.3028 79.316 33.6114 77.9129 34.2286C76.5098 34.8295 75.2841 35.6578 74.2358 36.7135C73.1876 37.753 72.357 38.9792 71.7441 40.3922C71.1313 41.8052 70.8249 43.3157 70.8249 44.9236C70.8249 46.5315 71.1313 48.0419 71.7441 49.4549C72.357 50.8679 73.1876 52.1023 74.2358 53.158C75.2841 54.1974 76.5098 55.0176 77.9129 55.6185C79.316 56.2195 80.8158 56.5199 82.4124 56.5199C83.3317 56.5199 84.1623 56.4468 84.9041 56.3007C85.646 56.1707 86.3153 55.984 86.912 55.7403C87.5248 55.4967 88.0651 55.2206 88.5328 54.912C89.0005 54.5872 89.4198 54.2461 89.7907 53.8888C90.3552 53.4178 90.6536 52.89 90.6858 52.3053C90.7342 51.7044 90.6052 51.1684 90.2988 50.6974C90.1697 50.47 90.0085 50.267 89.8149 50.0883C89.6214 49.8934 89.3956 49.7554 89.1376 49.6742C88.7666 49.5442 88.3796 49.5118 87.9764 49.5767C87.5732 49.6255 87.162 49.8122 86.7427 50.1371C86.275 50.6568 85.6944 51.0791 85.0009 51.4039C84.3074 51.7125 83.4446 51.8668 82.4124 51.8668C81.6706 51.8668 80.961 51.7531 80.2836 51.5257C79.6224 51.2821 79.0176 50.9491 78.4693 50.5268C77.921 50.1046 77.4452 49.6011 77.042 49.0164C76.6549 48.4317 76.3647 47.7983 76.1711 47.1162H91.6293ZM76.026 43.072C76.1872 42.3412 76.4614 41.6672 76.8485 41.05C77.2355 40.4166 77.7113 39.8725 78.2757 39.4177C78.8402 38.9467 79.4772 38.5813 80.1869 38.3214C80.9126 38.0616 81.6786 37.9316 82.485 37.9316C83.2914 37.9316 84.0574 38.0616 84.7832 38.3214C85.5089 38.5813 86.154 38.9386 86.7185 39.3934C87.2991 39.8481 87.7829 40.3922 88.1699 41.0256C88.5731 41.6428 88.8634 42.3249 89.0408 43.072H76.026Z" fill="white"/>
<path fill-rule="evenodd" clip-rule="evenodd" d="M44.6954 34.7646C44.8244 35.0569 44.8889 35.3736 44.8889 35.7147V53.8401C44.8889 54.5222 44.6551 55.0988 44.1874 55.5698C43.7358 56.0246 43.1714 56.2519 42.494 56.2519C42.1715 56.2519 41.857 56.1951 41.5506 56.0814C41.2603 55.9515 41.0022 55.7809 40.7764 55.5698C40.5668 55.3424 40.3975 55.0826 40.2684 54.7902C40.1394 54.4979 40.0749 54.1812 40.0749 53.8401V35.7147C40.0749 35.3736 40.1394 35.0569 40.2684 34.7646C40.3975 34.4722 40.5749 34.2205 40.8006 34.0093C41.0264 33.782 41.2845 33.6033 41.5748 33.4734C41.8651 33.3434 42.1795 33.2785 42.5182 33.2785C42.8569 33.2785 43.1714 33.3434 43.4617 33.4734C43.752 33.6033 44.0019 33.782 44.2116 34.0093C44.4212 34.2205 44.5825 34.4722 44.6954 34.7646Z" fill="white"/>
<path fill-rule="evenodd" clip-rule="evenodd" d="M10.2087 55.8134C10.2248 55.7485 10.2329 55.6429 10.2329 55.4967V35.7878C10.2329 35.0894 9.99901 34.5047 9.53131 34.0337C9.07974 33.5627 8.51528 33.3272 7.83793 33.3272C7.51538 33.3272 7.2009 33.3922 6.89448 33.5221C6.60418 33.652 6.34614 33.8307 6.12036 34.0581C5.9107 34.2692 5.74137 34.5291 5.61235 34.8376C5.48333 35.13 5.41882 35.4467 5.41882 35.7878V55.5942C5.41882 55.984 5.33818 56.3494 5.17691 56.6905C5.01563 57.0315 4.79791 57.3239 4.52375 57.5675C4.26571 57.8274 3.96735 58.0304 3.62867 58.1766C3.29 58.3227 2.92713 58.3958 2.54007 58.3958H2.41911C2.08044 58.3958 1.76595 58.4608 1.47566 58.5907C1.18537 58.7206 0.935391 58.8912 0.725734 59.1023C0.49995 59.3297 0.322549 59.5896 0.193529 59.8819C0.0645097 60.1905 0 60.5153 0 60.8564C0 61.1975 0.0645097 61.5142 0.193529 61.8065C0.322549 62.1151 0.49995 62.375 0.725734 62.5861C0.935391 62.8135 1.18537 62.984 1.47566 63.0977C1.76595 63.2276 2.08044 63.2926 2.41911 63.2926H2.54007C3.57223 63.2926 4.53987 63.0977 5.44301 62.7079C6.36227 62.3181 7.16864 61.7903 7.86212 61.1244C8.5556 60.4585 9.10394 59.6708 9.50712 58.7612C9.92644 57.8517 10.1603 56.8691 10.2087 55.8134Z" fill="white"/>
</svg>
