<svg width="443" height="500" viewBox="0 0 443 500" fill="none" xmlns="http://www.w3.org/2000/svg">
<path d="M21.6939 139.538H122.331C125.405 105.291 134.894 74.5367 148.526 50.7655C166.569 19.3392 192.229 0 221.231 0C250.232 0 275.759 19.4735 293.935 50.7655C307.568 74.4024 317.057 105.291 320.131 139.538H420.634C432.529 139.538 443.221 149.342 442.285 161.295L422.104 444.265C419.565 479.721 397.379 500 365.17 500H77.2916C41.4739 500 22.4958 474.886 20.3574 444.265L0.0429043 161.429C-0.758985 149.476 9.79923 139.538 21.6939 139.538ZM147.457 139.538H294.737C291.797 109.858 283.645 83.5348 272.017 63.3897C258.652 39.8872 240.476 25.2485 221.231 25.2485C201.852 25.2485 183.809 39.8872 170.177 63.524C158.55 83.5348 150.531 109.992 147.457 139.538Z" fill="#EA501F"/>
<path d="M148.125 400.752C143.447 397.529 142.244 391.217 145.452 386.517C148.659 381.816 154.941 380.607 159.618 383.831C162.559 385.845 165.633 387.86 168.974 389.874C192.496 404.244 214.147 411.362 232.189 411.362C248.495 411.362 261.726 405.184 270.146 392.694C270.68 391.754 271.215 391.217 271.348 390.814C273.754 386.92 275.491 382.756 276.694 378.727C279.1 370.401 278.699 361.805 275.358 354.016C271.749 345.824 264.8 337.9 253.974 331.319C246.757 326.887 237.803 322.993 226.977 320.038C199.446 312.249 179.131 301.236 168.172 286.463C156.144 270.213 155.208 250.605 168.038 226.834C176.592 211.12 194.1 201.316 216.285 199.571C235.397 198.093 258.384 202.659 281.773 214.612C286.852 217.164 288.856 223.342 286.183 228.445C283.51 233.549 277.496 235.563 272.418 232.877C252.504 222.67 233.526 218.776 217.755 219.984C202.653 221.193 191.159 227.102 186.081 236.503C177.527 252.216 177.661 264.572 184.611 273.973C192.63 284.851 209.336 293.312 232.59 299.893C245.153 303.519 255.845 308.085 264.666 313.457C279.234 322.321 288.99 333.468 294.202 345.555C299.548 358.045 300.216 371.206 296.608 384.099C295.004 389.874 292.465 395.649 288.99 401.29C288.188 402.498 287.653 403.438 287.253 404.11C274.823 422.509 255.712 431.642 232.457 431.776C210.672 431.776 185.279 423.718 158.549 407.333C155.208 405.453 151.733 403.304 148.125 400.752Z" fill="white"/>
</svg>
