<svg width="444" height="500" viewBox="0 0 444 500" fill="none" xmlns="http://www.w3.org/2000/svg">
<path fill-rule="evenodd" clip-rule="evenodd" d="M222.017 115.552C245.557 103.801 274.117 97.3933 300.246 95.1347L329.618 92.5835C361.781 89.8184 393.975 91.5142 426.176 91.5142H443.839V109.144C443.839 187.441 443.839 265.756 443.839 344.067V353.064C443.839 433.901 377.641 500 296.658 500H0V91.5142H17.6485C49.8907 91.5142 81.9602 89.402 114.195 91.8969L143.559 94.1142C171.45 96.2077 196.985 102.961 222.017 115.552V115.552Z" fill="#4D4C4B"/>
<path fill-rule="evenodd" clip-rule="evenodd" d="M17.6489 109.144V310.387V344.067V353.064V482.382H147.136H167.486H296.658C367.902 482.382 426.176 424.176 426.176 353.064V344.067C426.176 266.21 426.176 190.269 426.176 109.144C395.226 109.144 362.537 108.39 331.147 110.161L301.772 112.689C273.024 116.179 243.946 122.875 221.912 135.572C198.128 121.851 172.187 115.027 142.225 111.676L112.858 109.452C80.8333 107.958 47.9974 109.144 17.6489 109.144V109.144Z" fill="#5FB74E"/>
<path fill-rule="evenodd" clip-rule="evenodd" d="M54.2749 482.381H147.135H167.485H296.657C328.219 482.381 357.219 470.95 379.733 452.063C353.432 391.032 292.659 348.314 221.904 348.314C139.921 348.314 71.3748 405.657 54.2749 482.381Z" fill="#89C45F"/>
<path fill-rule="evenodd" clip-rule="evenodd" d="M221.917 482.382L298.169 481.256C329.311 481.256 357.66 470.289 379.739 452.074C408.171 428.614 426.176 393.092 426.176 353.064V344.067C426.176 266.21 426.176 190.269 426.176 109.144C395.227 109.144 362.537 108.39 331.148 110.161L301.773 112.689C273.025 116.179 243.946 122.876 221.913 135.572L221.917 482.382Z" fill="#4A9E4B"/>
<path fill-rule="evenodd" clip-rule="evenodd" d="M221.917 482.382H297.136C328.698 482.382 357.224 470.961 379.739 452.075C353.73 391.727 291.658 349.283 221.913 348.348L221.917 482.382Z" fill="#5FB74E"/>
<path fill-rule="evenodd" clip-rule="evenodd" d="M331.147 97.9448C325.534 42.8907 278.942 0 222.378 0C165.837 0 119.268 42.523 112.858 97.2582L142.226 99.4943C147.414 59.9652 181.16 29.3992 222.266 29.3992C263.353 29.3992 297.387 60.4829 301.768 100.47L331.147 97.9448V97.9448Z" fill="#4D4C4B"/>
<path fill-rule="evenodd" clip-rule="evenodd" d="M269.683 365.527C256.886 379.038 244.107 392.555 231.313 406.088L221.908 416.046L212.511 406.088C199.717 392.582 186.934 379.038 174.144 365.527L167.52 358.504L172.355 350.167C182.621 332.5 201.81 322.997 221.904 322.997C242.021 322.997 261.195 332.5 271.464 350.167L276.311 358.504L269.683 365.527V365.527Z" fill="#4D4C4B"/>
<path fill-rule="evenodd" clip-rule="evenodd" d="M260.264 356.662C247.496 370.187 234.687 383.694 221.904 397.223C209.125 383.694 196.331 370.187 183.541 356.662C191.62 342.758 206.785 335.888 221.904 335.911C237.032 335.888 252.193 342.758 260.264 356.662V356.662Z" fill="#FDF8B4"/>
<path fill-rule="evenodd" clip-rule="evenodd" d="M260.264 356.662C247.496 370.187 234.687 383.694 221.904 397.223L221.908 335.911C237.032 335.888 252.193 342.758 260.264 356.662V356.662Z" fill="#FCD066"/>
<path fill-rule="evenodd" clip-rule="evenodd" d="M126.049 160.015C183.353 160.015 229.825 206.447 229.825 263.636C229.825 320.851 183.353 367.261 126.049 367.261C68.7415 367.261 22.2888 320.851 22.2888 263.636C22.2888 206.447 68.7415 160.015 126.049 160.015V160.015Z" fill="#4D4C4B"/>
<path fill-rule="evenodd" clip-rule="evenodd" d="M126.05 177.644C173.611 177.644 212.177 216.16 212.177 263.636C212.177 311.118 173.611 349.631 126.05 349.631C78.4776 349.631 39.9304 311.118 39.9304 263.636C39.9304 216.16 78.4776 177.644 126.05 177.644V177.644Z" fill="#EEEFEE"/>
<path fill-rule="evenodd" clip-rule="evenodd" d="M126.049 177.644C165.299 177.644 198.424 203.884 208.802 239.74C198.424 275.585 165.299 301.825 126.049 301.825C86.7846 301.825 53.6933 275.585 43.3191 239.74C53.6933 203.884 86.7846 177.644 126.049 177.644Z" fill="#FEFEFE"/>
<path fill-rule="evenodd" clip-rule="evenodd" d="M317.767 160.015C375.083 160.015 421.535 206.447 421.535 263.636C421.535 320.851 375.083 367.261 317.767 367.261C260.463 367.261 213.988 320.873 213.988 263.636C213.988 206.447 260.463 160.015 317.767 160.015V160.015Z" fill="#4D4C4B"/>
<path fill-rule="evenodd" clip-rule="evenodd" d="M317.767 177.644C365.328 177.644 403.894 216.16 403.894 263.636C403.898 311.118 365.328 349.631 317.767 349.631C270.21 349.631 231.655 311.118 231.655 263.636C231.655 216.16 270.21 177.644 317.767 177.644V177.644Z" fill="#EEEFEE"/>
<path fill-rule="evenodd" clip-rule="evenodd" d="M317.768 177.644C357.01 177.644 390.143 203.884 400.502 239.74C390.143 275.585 357.01 301.825 317.768 301.825C278.507 301.825 245.393 275.585 235.015 239.74C245.393 203.884 278.507 177.644 317.768 177.644Z" fill="#FEFEFE"/>
<path fill-rule="evenodd" clip-rule="evenodd" d="M136.873 210.162C167.586 210.162 192.505 235.025 192.505 265.666C192.505 296.352 167.586 321.215 136.873 321.215C106.138 321.215 81.2451 296.352 81.2451 265.666C81.2451 255.442 84.0294 245.868 88.8651 237.633C92.8367 247.44 102.444 254.321 113.705 254.321C128.494 254.321 140.503 242.375 140.503 227.596C140.503 220.948 138.072 214.878 134.07 210.222C134.995 210.162 135.945 210.162 136.873 210.162Z" fill="#4D4C4B"/>
<path fill-rule="evenodd" clip-rule="evenodd" d="M306.926 210.162C337.669 210.162 362.57 235.025 362.57 265.666C362.57 296.352 337.669 321.215 306.926 321.215C276.221 321.215 251.321 296.352 251.321 265.666C251.321 255.442 254.09 245.868 258.914 237.633C262.905 247.44 272.528 254.321 283.777 254.321C298.57 254.321 310.56 242.375 310.56 227.596C310.56 220.948 308.155 214.878 304.142 210.222C305.078 210.162 305.995 210.162 306.926 210.162V210.162Z" fill="#4D4C4B"/>
</svg>
