<svg width="498" height="500" viewBox="0 0 498 500" fill="none" xmlns="http://www.w3.org/2000/svg">
<g clip-path="url(#clip0_1:2)">
<path d="M424.631 72.6603C377.904 25.8319 315.771 0.0285711 249.573 0C113.161 0 2.14893 111.141 2.09432 247.748C2.07842 291.415 13.4712 334.041 35.1258 371.614L0.0166016 500L131.208 465.549C167.353 485.291 208.051 495.694 249.466 495.71H249.571H249.573C385.963 495.71 496.991 384.55 497.049 247.949C497.072 181.743 471.352 119.492 424.631 72.6603V72.6603ZM249.573 453.865H249.492C212.577 453.845 176.376 443.92 144.8 425.155L137.286 420.694L59.4344 441.136L80.2197 365.147L75.3238 357.356C54.7321 324.566 43.8614 286.673 43.8768 247.764C43.9221 134.22 136.191 41.8472 249.651 41.8472C304.594 41.8701 356.234 63.318 395.072 102.24C433.907 141.162 455.279 192.904 455.263 247.931C455.215 361.479 362.943 453.865 249.573 453.865V453.865Z" fill="#E0E0E0"/>
<path d="M11.3767 485.754L44.8822 363.234C24.2114 327.376 13.3411 286.695 13.3542 245.03C13.4084 114.665 119.35 8.60474 249.52 8.60474C312.697 8.63331 371.993 33.2567 416.576 77.9471C461.168 122.637 485.71 182.04 485.685 245.215C485.63 375.583 379.682 481.653 249.529 481.653C249.52 481.653 249.536 481.653 249.529 481.653H249.424C209.9 481.641 171.065 471.704 136.573 452.878L11.3767 485.754V485.754Z" fill="url(#paint0_linear_1:2)"/>
<path fill-rule="evenodd" clip-rule="evenodd" d="M188.418 142.567C183.839 132.373 179.019 132.168 174.663 131.99C171.1 131.837 167.021 131.846 162.949 131.846C158.873 131.846 152.25 133.38 146.65 139.506C141.046 145.632 125.253 160.44 125.253 190.557C125.253 220.678 147.159 249.782 150.213 253.87C153.269 257.951 192.5 321.733 254.629 346.27C306.265 366.662 316.772 362.605 327.98 361.585C339.188 360.565 364.144 346.78 369.238 332.485C374.333 318.193 374.333 305.942 372.804 303.381C371.276 300.83 367.201 299.299 361.087 296.238C354.974 293.177 324.923 278.365 319.319 276.325C313.716 274.284 309.64 273.263 305.564 279.392C301.489 285.515 289.781 299.299 286.215 303.381C282.649 307.472 279.083 307.982 272.969 304.921C266.856 301.85 247.169 295.393 223.815 274.538C205.643 258.314 193.375 238.276 189.809 232.148C186.243 226.025 189.427 222.709 192.493 219.657C195.238 216.915 198.607 212.511 201.663 208.936C204.713 205.362 205.732 202.811 207.77 198.729C209.808 194.641 208.789 191.067 207.261 188.006C205.732 184.944 193.853 154.671 188.418 142.567V142.567Z" fill="white"/>
<path d="M422.609 71.873C376.418 25.5822 314.999 0.075549 249.561 0.0465698C114.714 0.0465698 4.97677 109.911 4.92257 244.951C4.90667 288.117 16.1686 330.253 37.5746 367.395L2.8689 494.307L132.554 460.251C168.285 479.766 208.515 490.05 249.456 490.066H249.559H249.561C384.385 490.066 494.138 380.182 494.196 245.148C494.218 179.703 468.793 118.167 422.609 71.873V71.873ZM249.561 448.702H249.481C212.989 448.682 177.204 438.871 145.991 420.322L138.562 415.912L61.6045 436.119L82.151 361.002L77.3113 353.301C56.9559 320.888 46.2099 283.429 46.2258 244.967C46.2702 132.727 137.48 41.4142 249.637 41.4142C303.951 41.4366 354.997 62.6384 393.39 101.114C431.779 139.589 452.905 190.736 452.889 245.133C452.841 357.376 361.628 448.702 249.561 448.702Z" fill="white"/>
</g>
<defs>
<linearGradient id="paint0_linear_1:2" x1="248.531" y1="485.754" x2="248.531" y2="8.60553" gradientUnits="userSpaceOnUse">
<stop stop-color="#20B038"/>
<stop offset="1" stop-color="#60D66A"/>
</linearGradient>
<clipPath id="clip0_1:2">
<rect width="497.065" height="500" fill="white"/>
</clipPath>
</defs>
</svg>
